<svg width="231" height="118" viewBox="0 0 231 118" fill="none" xmlns="http://www.w3.org/2000/svg">
<g filter="url(#filter0_d_2042_28)">
<rect x="34.6582" y="13.1705" width="180.684" height="67.7501" rx="33.8751" fill="white" shape-rendering="crispEdges"/>
<circle cx="68.5331" cy="47.0456" r="21.2704" fill="#FFCC6A"/>
<path d="M59.3418 47.4175L68.6419 38.1173M68.6419 38.1173L77.9421 47.4175M68.6419 38.1173V56.7176" stroke="#7551DC" stroke-width="3.15117" stroke-linecap="round" stroke-linejoin="round"/>
<path d="M98.5169 39.9448V31.5448H103.629V32.3728H99.5249V35.3248H103.017V36.1408H99.5249V39.9448H98.5169ZM106.961 40.0888C106.401 40.0888 105.897 39.9608 105.449 39.7048C105.001 39.4488 104.645 39.0888 104.381 38.6248C104.125 38.1528 103.997 37.6008 103.997 36.9688C103.997 36.3368 104.129 35.7888 104.393 35.3248C104.657 34.8528 105.013 34.4888 105.461 34.2328C105.917 33.9768 106.425 33.8488 106.985 33.8488C107.545 33.8488 108.049 33.9768 108.497 34.2328C108.945 34.4888 109.297 34.8528 109.553 35.3248C109.817 35.7888 109.949 36.3368 109.949 36.9688C109.949 37.6008 109.817 38.1528 109.553 38.6248C109.289 39.0888 108.929 39.4488 108.473 39.7048C108.025 39.9608 107.521 40.0888 106.961 40.0888ZM106.961 39.2248C107.305 39.2248 107.625 39.1408 107.921 38.9728C108.217 38.8048 108.457 38.5528 108.641 38.2168C108.825 37.8808 108.917 37.4648 108.917 36.9688C108.917 36.4728 108.825 36.0568 108.641 35.7208C108.465 35.3848 108.229 35.1328 107.933 34.9648C107.637 34.7968 107.321 34.7128 106.985 34.7128C106.641 34.7128 106.321 34.7968 106.025 34.9648C105.729 35.1328 105.489 35.3848 105.305 35.7208C105.121 36.0568 105.029 36.4728 105.029 36.9688C105.029 37.4648 105.121 37.8808 105.305 38.2168C105.489 38.5528 105.725 38.8048 106.013 38.9728C106.309 39.1408 106.625 39.2248 106.961 39.2248ZM110.991 39.9448V31.3048H111.999V39.9448H110.991ZM113.291 39.9448V31.3048H114.299V39.9448H113.291ZM118.303 40.0888C117.743 40.0888 117.239 39.9608 116.791 39.7048C116.343 39.4488 115.987 39.0888 115.723 38.6248C115.467 38.1528 115.339 37.6008 115.339 36.9688C115.339 36.3368 115.471 35.7888 115.735 35.3248C115.999 34.8528 116.355 34.4888 116.803 34.2328C117.259 33.9768 117.767 33.8488 118.327 33.8488C118.887 33.8488 119.391 33.9768 119.839 34.2328C120.287 34.4888 120.639 34.8528 120.895 35.3248C121.159 35.7888 121.291 36.3368 121.291 36.9688C121.291 37.6008 121.159 38.1528 120.895 38.6248C120.631 39.0888 120.271 39.4488 119.815 39.7048C119.367 39.9608 118.863 40.0888 118.303 40.0888ZM118.303 39.2248C118.647 39.2248 118.967 39.1408 119.263 38.9728C119.559 38.8048 119.799 38.5528 119.983 38.2168C120.167 37.8808 120.259 37.4648 120.259 36.9688C120.259 36.4728 120.167 36.0568 119.983 35.7208C119.807 35.3848 119.571 35.1328 119.275 34.9648C118.979 34.7968 118.663 34.7128 118.327 34.7128C117.983 34.7128 117.663 34.7968 117.367 34.9648C117.071 35.1328 116.831 35.3848 116.647 35.7208C116.463 36.0568 116.371 36.4728 116.371 36.9688C116.371 37.4648 116.463 37.8808 116.647 38.2168C116.831 38.5528 117.067 38.8048 117.355 38.9728C117.651 39.1408 117.967 39.2248 118.303 39.2248ZM123.31 39.9448L121.57 33.9928H122.578L123.838 38.6608L125.23 33.9928H126.37L127.774 38.6608L129.022 33.9928H130.042L128.302 39.9448H127.27L125.806 35.0368L124.342 39.9448H123.31ZM133.25 40.0888C132.682 40.0888 132.178 39.9608 131.738 39.7048C131.298 39.4408 130.95 39.0768 130.694 38.6128C130.446 38.1488 130.322 37.6008 130.322 36.9688C130.322 36.3448 130.446 35.8008 130.694 35.3368C130.942 34.8648 131.286 34.5008 131.726 34.2448C132.174 33.9808 132.69 33.8488 133.274 33.8488C133.85 33.8488 134.346 33.9808 134.762 34.2448C135.186 34.5008 135.51 34.8408 135.734 35.2648C135.958 35.6888 136.07 36.1448 136.07 36.6328C136.07 36.7208 136.066 36.8088 136.058 36.8968C136.058 36.9848 136.058 37.0848 136.058 37.1968H131.318C131.342 37.6528 131.446 38.0328 131.63 38.3368C131.822 38.6328 132.058 38.8568 132.338 39.0088C132.626 39.1608 132.93 39.2368 133.25 39.2368C133.666 39.2368 134.014 39.1408 134.294 38.9488C134.574 38.7568 134.778 38.4968 134.906 38.1688H135.902C135.742 38.7208 135.434 39.1808 134.978 39.5488C134.53 39.9088 133.954 40.0888 133.25 40.0888ZM133.25 34.7008C132.77 34.7008 132.342 34.8488 131.966 35.1448C131.598 35.4328 131.386 35.8568 131.33 36.4168H135.074C135.05 35.8808 134.866 35.4608 134.522 35.1568C134.178 34.8528 133.754 34.7008 133.25 34.7008ZM137.046 39.9448V33.9928H137.958L138.042 35.1328C138.226 34.7408 138.506 34.4288 138.882 34.1968C139.258 33.9648 139.722 33.8488 140.274 33.8488V34.9048H139.998C139.646 34.9048 139.322 34.9688 139.026 35.0968C138.73 35.2168 138.494 35.4248 138.318 35.7208C138.142 36.0168 138.054 36.4248 138.054 36.9448V39.9448H137.046ZM143.326 40.0888C142.614 40.0888 142.022 39.9088 141.55 39.5488C141.078 39.1888 140.802 38.7008 140.722 38.0848H141.754C141.818 38.3968 141.982 38.6688 142.246 38.9008C142.518 39.1248 142.882 39.2368 143.338 39.2368C143.762 39.2368 144.074 39.1488 144.274 38.9728C144.474 38.7888 144.574 38.5728 144.574 38.3248C144.574 37.9648 144.442 37.7248 144.178 37.6048C143.922 37.4848 143.558 37.3768 143.086 37.2808C142.766 37.2168 142.446 37.1248 142.126 37.0048C141.806 36.8848 141.538 36.7168 141.322 36.5008C141.106 36.2768 140.998 35.9848 140.998 35.6248C140.998 35.1048 141.19 34.6808 141.574 34.3528C141.966 34.0168 142.494 33.8488 143.158 33.8488C143.79 33.8488 144.306 34.0088 144.706 34.3288C145.114 34.6408 145.35 35.0888 145.414 35.6728H144.418C144.378 35.3688 144.246 35.1328 144.022 34.9648C143.806 34.7888 143.514 34.7008 143.146 34.7008C142.786 34.7008 142.506 34.7768 142.306 34.9288C142.114 35.0808 142.018 35.2808 142.018 35.5288C142.018 35.7688 142.142 35.9568 142.39 36.0928C142.646 36.2288 142.99 36.3448 143.422 36.4408C143.79 36.5208 144.138 36.6208 144.466 36.7408C144.802 36.8528 145.074 37.0248 145.282 37.2568C145.498 37.4808 145.606 37.8088 145.606 38.2408C145.614 38.7768 145.41 39.2208 144.994 39.5728C144.586 39.9168 144.03 40.0888 143.326 40.0888Z" fill="#9E9E9E"/>
<path d="M103.829 64.3864C102.896 64.3864 102.049 64.2197 101.289 63.8864C100.542 63.5397 99.9422 63.0597 99.4889 62.4464C99.0489 61.833 98.8289 61.113 98.8289 60.2864C98.8289 59.4464 99.0622 58.693 99.5289 58.0264C100.009 57.3597 100.642 56.9064 101.429 56.6664C100.722 56.3864 100.176 55.9797 99.7889 55.4464C99.4022 54.8997 99.2089 54.2997 99.2089 53.6464C99.2089 52.9664 99.3889 52.3464 99.7489 51.7864C100.109 51.213 100.629 50.7597 101.309 50.4264C102.002 50.0797 102.842 49.9064 103.829 49.9064C104.816 49.9064 105.649 50.0797 106.329 50.4264C107.022 50.7597 107.549 51.213 107.909 51.7864C108.269 52.3464 108.449 52.9664 108.449 53.6464C108.449 54.2864 108.249 54.8864 107.849 55.4464C107.462 55.993 106.916 56.3997 106.209 56.6664C106.996 56.9197 107.622 57.3797 108.089 58.0464C108.569 58.6997 108.809 59.4464 108.809 60.2864C108.809 61.113 108.589 61.833 108.149 62.4464C107.709 63.0597 107.109 63.5397 106.349 63.8864C105.602 64.2197 104.762 64.3864 103.829 64.3864ZM103.829 55.9864C104.602 55.9864 105.209 55.7864 105.649 55.3864C106.102 54.9864 106.329 54.473 106.329 53.8464C106.329 53.1397 106.109 52.5997 105.669 52.2264C105.229 51.853 104.616 51.6664 103.829 51.6664C103.042 51.6664 102.429 51.853 101.989 52.2264C101.549 52.5997 101.329 53.1397 101.329 53.8464C101.329 54.473 101.549 54.9864 101.989 55.3864C102.429 55.7864 103.042 55.9864 103.829 55.9864ZM103.829 62.5864C104.789 62.5864 105.509 62.3597 105.989 61.9064C106.469 61.4397 106.709 60.8464 106.709 60.1264C106.709 59.3264 106.449 58.713 105.929 58.2864C105.422 57.8464 104.722 57.6264 103.829 57.6264C102.936 57.6264 102.229 57.8464 101.709 58.2864C101.189 58.713 100.929 59.3264 100.929 60.1264C100.929 60.8464 101.169 61.4397 101.649 61.9064C102.142 62.3597 102.869 62.5864 103.829 62.5864ZM114.424 64.3864C113.504 64.3864 112.717 64.2064 112.064 63.8464C111.411 63.4864 110.897 63.0064 110.524 62.4064C110.164 61.8064 109.944 61.153 109.864 60.4464H111.844C111.964 61.1397 112.251 61.673 112.704 62.0464C113.157 62.4197 113.737 62.6064 114.444 62.6064C115.417 62.6064 116.217 62.153 116.844 61.2464C117.484 60.3264 117.824 58.9197 117.864 57.0264C117.544 57.613 117.044 58.113 116.364 58.5264C115.697 58.9397 114.924 59.1464 114.044 59.1464C113.257 59.1464 112.517 58.9597 111.824 58.5864C111.131 58.213 110.571 57.693 110.144 57.0264C109.717 56.3464 109.504 55.5464 109.504 54.6264C109.504 53.813 109.704 53.0464 110.104 52.3264C110.504 51.6064 111.064 51.0264 111.784 50.5864C112.517 50.133 113.384 49.9064 114.384 49.9064C115.411 49.9064 116.277 50.0997 116.984 50.4864C117.691 50.873 118.257 51.3864 118.684 52.0264C119.111 52.6664 119.417 53.3864 119.604 54.1864C119.804 54.9864 119.904 55.8064 119.904 56.6464C119.904 58.193 119.684 59.5464 119.244 60.7064C118.817 61.8664 118.197 62.773 117.384 63.4264C116.571 64.0664 115.584 64.3864 114.424 64.3864ZM114.524 57.3264C115.084 57.3264 115.584 57.1997 116.024 56.9464C116.464 56.693 116.811 56.3597 117.064 55.9464C117.331 55.5197 117.464 55.053 117.464 54.5464C117.464 53.9997 117.331 53.5197 117.064 53.1064C116.811 52.6797 116.457 52.3464 116.004 52.1064C115.564 51.8664 115.064 51.7464 114.504 51.7464C113.944 51.7464 113.444 51.8664 113.004 52.1064C112.564 52.3464 112.211 52.6797 111.944 53.1064C111.691 53.5197 111.564 53.993 111.564 54.5264C111.564 55.3797 111.844 56.0597 112.404 56.5664C112.964 57.073 113.671 57.3264 114.524 57.3264ZM119.901 66.5064L121.061 61.7864H123.161L121.321 66.5064H119.901ZM128.923 64.3864C127.936 64.3864 127.083 64.213 126.363 63.8664C125.643 63.5064 125.069 63.0197 124.643 62.4064C124.229 61.7797 123.976 61.073 123.883 60.2864H125.963C126.096 60.953 126.429 61.5064 126.963 61.9464C127.496 62.373 128.156 62.5864 128.943 62.5864C129.529 62.5864 130.036 62.4464 130.463 62.1664C130.889 61.873 131.223 61.4864 131.463 61.0064C131.703 60.5264 131.823 59.9864 131.823 59.3864C131.823 58.4397 131.556 57.6864 131.023 57.1264C130.489 56.553 129.816 56.2664 129.003 56.2664C128.309 56.2664 127.716 56.433 127.223 56.7664C126.729 57.0864 126.369 57.493 126.143 57.9864H124.123L125.323 50.1464H132.883V52.0064H126.923L126.203 55.7464C126.509 55.3997 126.929 55.113 127.463 54.8864C128.009 54.6464 128.623 54.5264 129.303 54.5264C130.249 54.5264 131.063 54.7464 131.743 55.1864C132.423 55.613 132.943 56.193 133.303 56.9264C133.676 57.6597 133.863 58.473 133.863 59.3664C133.863 60.2997 133.663 61.1464 133.263 61.9064C132.863 62.6664 132.289 63.273 131.543 63.7264C130.809 64.1664 129.936 64.3864 128.923 64.3864ZM139.647 64.3864C138.74 64.3864 137.914 64.2264 137.167 63.9064C136.434 63.573 135.847 63.073 135.407 62.4064C134.967 61.7397 134.734 60.9064 134.707 59.9064H136.807C136.834 60.653 137.087 61.2864 137.567 61.8064C138.06 62.313 138.754 62.5664 139.647 62.5664C140.5 62.5664 141.154 62.333 141.607 61.8664C142.06 61.3864 142.287 60.793 142.287 60.0864C142.287 59.233 141.98 58.5997 141.367 58.1864C140.767 57.773 140.027 57.5664 139.147 57.5664H138.107V55.8064H139.167C139.954 55.8064 140.587 55.6197 141.067 55.2464C141.56 54.873 141.807 54.3464 141.807 53.6664C141.807 53.093 141.614 52.6264 141.227 52.2664C140.854 51.9064 140.32 51.7264 139.627 51.7264C138.907 51.7264 138.34 51.9397 137.927 52.3664C137.514 52.7797 137.287 53.2997 137.247 53.9264H135.147C135.174 53.113 135.374 52.4064 135.747 51.8064C136.134 51.2064 136.66 50.7397 137.327 50.4064C137.994 50.073 138.76 49.9064 139.627 49.9064C140.56 49.9064 141.34 50.073 141.967 50.4064C142.607 50.7264 143.087 51.1664 143.407 51.7264C143.74 52.273 143.907 52.873 143.907 53.5264C143.907 54.273 143.7 54.9264 143.287 55.4864C142.874 56.0464 142.32 56.4197 141.627 56.6064C142.427 56.7797 143.087 57.173 143.607 57.7864C144.127 58.3864 144.387 59.1664 144.387 60.1264C144.387 60.8997 144.207 61.613 143.847 62.2664C143.487 62.9064 142.954 63.4197 142.247 63.8064C141.54 64.193 140.674 64.3864 139.647 64.3864ZM145.523 64.1464V62.6264C146.429 61.9064 147.296 61.1797 148.123 60.4464C148.949 59.713 149.683 58.993 150.323 58.2864C150.976 57.5664 151.489 56.8664 151.863 56.1864C152.236 55.493 152.423 54.8264 152.423 54.1864C152.423 53.7597 152.349 53.3597 152.203 52.9864C152.056 52.5997 151.816 52.293 151.483 52.0664C151.149 51.8264 150.703 51.7064 150.143 51.7064C149.303 51.7064 148.669 51.973 148.243 52.5064C147.829 53.0397 147.629 53.6797 147.643 54.4264H145.583C145.596 53.4397 145.803 52.613 146.203 51.9464C146.616 51.2797 147.163 50.773 147.843 50.4264C148.536 50.0797 149.316 49.9064 150.183 49.9064C151.503 49.9064 152.556 50.2797 153.343 51.0264C154.143 51.7597 154.543 52.7864 154.543 54.1064C154.543 54.893 154.349 55.673 153.963 56.4464C153.589 57.2197 153.096 57.9664 152.483 58.6864C151.883 59.393 151.236 60.0597 150.543 60.6864C149.849 61.313 149.189 61.8797 148.563 62.3864H154.963V64.1464H145.523Z" fill="#121212"/>
<rect x="169.233" y="49.0456" width="33.5039" height="16.2016" rx="5.25195" fill="#DAFFE9"/>
<path d="M174.965 58.1792V57.4675H176.477V56.0521H177.212V57.4675H178.724V58.1792H177.212V59.6026H176.477V58.1792H174.965ZM179.946 60.1464V55.5083L179.042 55.7162V55.0925L180.282 54.5487H180.825V60.1464H179.946ZM181.451 60.1464V59.5386C181.813 59.2507 182.16 58.9602 182.491 58.667C182.821 58.3738 183.114 58.0859 183.37 57.8033C183.631 57.5155 183.837 57.2356 183.986 56.9637C184.135 56.6865 184.21 56.4199 184.21 56.164C184.21 55.9934 184.18 55.8335 184.122 55.6842C184.063 55.5296 183.967 55.407 183.834 55.3164C183.701 55.2204 183.522 55.1724 183.298 55.1724C182.962 55.1724 182.709 55.2791 182.538 55.4923C182.373 55.7055 182.293 55.9614 182.299 56.26H181.475C181.48 55.8655 181.563 55.535 181.723 55.2684C181.888 55.0018 182.107 54.7993 182.379 54.6606C182.656 54.522 182.968 54.4527 183.314 54.4527C183.842 54.4527 184.263 54.602 184.578 54.9005C184.898 55.1938 185.057 55.6043 185.057 56.132C185.057 56.4466 184.98 56.7584 184.826 57.0676C184.676 57.3768 184.479 57.6754 184.234 57.9633C183.994 58.2458 183.735 58.5124 183.458 58.7629C183.181 59.0135 182.917 59.2401 182.666 59.4427H185.225V60.1464H181.451ZM187.916 60.2423C187.409 60.2423 186.972 60.1224 186.604 59.8825C186.242 59.6372 185.962 59.2987 185.765 58.8669C185.573 58.4297 185.477 57.9233 185.477 57.3475C185.477 56.7718 185.573 56.268 185.765 55.8362C185.962 55.399 186.242 55.0605 186.604 54.8206C186.972 54.5754 187.409 54.4527 187.916 54.4527C188.422 54.4527 188.857 54.5754 189.219 54.8206C189.582 55.0605 189.859 55.399 190.051 55.8362C190.248 56.268 190.347 56.7718 190.347 57.3475C190.347 57.9233 190.248 58.4297 190.051 58.8669C189.859 59.2987 189.582 59.6372 189.219 59.8825C188.857 60.1224 188.422 60.2423 187.916 60.2423ZM187.916 59.4826C188.22 59.4826 188.489 59.3973 188.724 59.2267C188.963 59.0562 189.15 58.8109 189.283 58.4911C189.417 58.1712 189.483 57.79 189.483 57.3475C189.483 56.905 189.417 56.5239 189.283 56.204C189.15 55.8841 188.963 55.6389 188.724 55.4683C188.489 55.2977 188.22 55.2124 187.916 55.2124C187.607 55.2124 187.335 55.2977 187.1 55.4683C186.866 55.6389 186.682 55.8841 186.548 56.204C186.415 56.5239 186.349 56.905 186.349 57.3475C186.349 57.79 186.415 58.1712 186.548 58.4911C186.682 58.8109 186.866 59.0562 187.1 59.2267C187.335 59.3973 187.607 59.4826 187.916 59.4826ZM191.971 57.2196C191.721 57.2196 191.494 57.1636 191.292 57.0517C191.094 56.9397 190.937 56.7824 190.82 56.5798C190.703 56.3719 190.644 56.124 190.644 55.8362C190.644 55.5536 190.703 55.311 190.82 55.1085C190.937 54.9005 191.097 54.7406 191.3 54.6287C191.502 54.5167 191.729 54.4607 191.979 54.4607C192.225 54.4607 192.446 54.5167 192.643 54.6287C192.846 54.7406 193.006 54.9005 193.123 55.1085C193.24 55.311 193.299 55.5536 193.299 55.8362C193.299 56.124 193.24 56.3719 193.123 56.5798C193.006 56.7824 192.846 56.9397 192.643 57.0517C192.446 57.1636 192.222 57.2196 191.971 57.2196ZM191.572 60.1464L194.778 54.5487H195.61L192.411 60.1464H191.572ZM191.971 56.6118C192.142 56.6118 192.289 56.5479 192.411 56.4199C192.539 56.2866 192.603 56.0921 192.603 55.8362C192.603 55.5803 192.542 55.3883 192.419 55.2604C192.297 55.1271 192.147 55.0605 191.971 55.0605C191.801 55.0605 191.652 55.1271 191.524 55.2604C191.396 55.3883 191.332 55.5803 191.332 55.8362C191.332 56.0921 191.393 56.2866 191.516 56.4199C191.644 56.5479 191.795 56.6118 191.971 56.6118ZM195.258 60.2423C195.007 60.2423 194.781 60.1863 194.578 60.0744C194.381 59.9624 194.224 59.8052 194.106 59.6026C193.989 59.3947 193.931 59.1468 193.931 58.8589C193.931 58.5764 193.989 58.3311 194.106 58.1232C194.224 57.9153 194.384 57.7554 194.586 57.6434C194.789 57.5315 195.015 57.4755 195.266 57.4755C195.511 57.4755 195.732 57.5315 195.93 57.6434C196.132 57.7554 196.292 57.9153 196.41 58.1232C196.527 58.3311 196.585 58.5764 196.585 58.8589C196.585 59.1468 196.527 59.3947 196.41 59.6026C196.292 59.8052 196.132 59.9624 195.93 60.0744C195.732 60.1863 195.509 60.2423 195.258 60.2423ZM195.258 59.6266C195.429 59.6266 195.575 59.5626 195.698 59.4347C195.826 59.3067 195.89 59.1148 195.89 58.8589C195.89 58.603 195.828 58.4111 195.706 58.2831C195.583 58.1499 195.434 58.0832 195.258 58.0832C195.087 58.0832 194.938 58.1499 194.81 58.2831C194.682 58.4111 194.618 58.603 194.618 58.8589C194.618 59.1148 194.68 59.3067 194.802 59.4347C194.93 59.5626 195.082 59.6266 195.258 59.6266Z" fill="#0E803B"/>
</g>
<defs>
<filter id="filter0_d_2042_28" x="0.423131" y="0.454649" width="229.591" height="116.657" filterUnits="userSpaceOnUse" color-interpolation-filters="sRGB">
<feFlood flood-opacity="0" result="BackgroundImageFix"/>
<feColorMatrix in="SourceAlpha" type="matrix" values="0 0 0 0 0 0 0 0 0 0 0 0 0 0 0 0 0 0 127 0" result="hardAlpha"/>
<feOffset dx="-9.78145" dy="11.7377"/>
<feGaussianBlur stdDeviation="12.2268"/>
<feComposite in2="hardAlpha" operator="out"/>
<feColorMatrix type="matrix" values="0 0 0 0 0.384371 0 0 0 0 0.102708 0 0 0 0 0.483333 0 0 0 0.05 0"/>
<feBlend mode="normal" in2="BackgroundImageFix" result="effect1_dropShadow_2042_28"/>
<feBlend mode="normal" in="SourceGraphic" in2="effect1_dropShadow_2042_28" result="shape"/>
</filter>
</defs>
</svg>
